<svg width="1280" height="611" viewBox="0 0 1280 611" fill="none" xmlns="http://www.w3.org/2000/svg">
<rect width="1280" height="610" transform="translate(0 0.978516)" fill="url(#paint0_linear_1_283)"/>
<path d="M175.456 102.979H160.156V60.9785H175.456C188.536 60.9785 197.236 69.5585 197.236 81.9185C197.236 94.2185 188.536 102.979 175.456 102.979ZM169.156 68.4785V95.4785H175.456C183.496 95.4785 187.996 89.8985 187.996 81.9185C187.996 73.8785 183.496 68.4785 175.456 68.4785H169.156ZM216.495 103.339C206.655 103.339 200.235 97.0385 200.235 87.5585C200.235 78.0785 206.655 71.7785 216.495 71.7785C226.335 71.7785 232.755 78.0785 232.755 87.5585C232.755 97.0985 226.335 103.339 216.495 103.339ZM216.495 96.4385C221.235 96.4385 224.175 92.7785 224.175 87.5585C224.175 82.3385 221.235 78.6785 216.495 78.6785C211.755 78.6785 208.875 82.3385 208.875 87.5585C208.875 92.7785 211.755 96.4385 216.495 96.4385ZM254.511 71.7785C261.171 71.7785 266.871 75.3185 266.871 85.8785V102.979H258.411V86.7185C258.411 81.4985 256.431 78.7385 252.171 78.7385C247.791 78.7385 245.271 81.8585 245.271 87.1985V102.979H236.811V72.1385H244.191L244.971 75.9785C246.951 73.5785 249.771 71.7785 254.511 71.7785ZM280.962 60.7985C280.602 62.1985 280.142 63.7185 279.582 65.3585C279.022 66.9585 278.422 68.5785 277.782 70.2185C277.142 71.8185 276.482 73.3585 275.802 74.8385H269.382C269.662 73.6385 269.942 72.3985 270.222 71.1185C270.502 69.8385 270.762 68.5585 271.002 67.2785C271.282 65.9585 271.522 64.6985 271.722 63.4985C271.962 62.2985 272.162 61.1785 272.322 60.1385H280.542L280.962 60.7985ZM286.23 94.1585V79.2785H281.13V72.1385H286.23V63.4985H294.69V72.1385H301.77V79.2785H294.69V92.7785C294.69 94.9385 295.53 95.8385 297.75 95.8385H301.95V102.979H295.05C289.17 102.979 286.23 100.039 286.23 94.1585ZM320.208 102.979V60.9785H332.028L343.668 91.8185L354.948 60.9785H366.528V102.979H357.948V74.8385L347.028 102.979H339.708L328.788 74.8385V102.979H320.208ZM376.704 68.8385C373.944 68.8385 371.784 66.7985 371.784 64.0985C371.784 61.3385 373.944 59.2985 376.704 59.2985C379.464 59.2985 381.624 61.3385 381.624 64.0985C381.624 66.7985 379.464 68.8385 376.704 68.8385ZM372.444 102.979V72.1385H380.964V102.979H372.444ZM384.759 92.7185H392.799C393.099 95.4185 395.439 97.2785 399.579 97.2785C403.119 97.2785 405.279 96.1385 405.279 93.9785C405.279 91.4585 403.179 91.2785 398.199 90.6185C390.999 89.7785 385.419 88.1585 385.419 81.7985C385.419 75.6785 390.759 71.6585 398.679 71.7185C406.959 71.7185 412.659 75.3785 413.079 81.6785H404.979C404.739 79.2185 402.399 77.7185 398.979 77.7185C395.679 77.7185 393.519 78.9185 393.519 80.8985C393.519 83.2385 396.159 83.4785 400.599 84.0185C407.679 84.7385 413.559 86.3585 413.559 93.3185C413.559 99.4385 407.799 103.339 399.519 103.339C390.939 103.339 385.119 99.3185 384.759 92.7185ZM415.39 92.7185H423.43C423.73 95.4185 426.07 97.2785 430.21 97.2785C433.75 97.2785 435.91 96.1385 435.91 93.9785C435.91 91.4585 433.81 91.2785 428.83 90.6185C421.63 89.7785 416.05 88.1585 416.05 81.7985C416.05 75.6785 421.39 71.6585 429.31 71.7185C437.59 71.7185 443.29 75.3785 443.71 81.6785H435.61C435.37 79.2185 433.03 77.7185 429.61 77.7185C426.31 77.7185 424.15 78.9185 424.15 80.8985C424.15 83.2385 426.79 83.4785 431.23 84.0185C438.31 84.7385 444.19 86.3585 444.19 93.3185C444.19 99.4385 438.43 103.339 430.15 103.339C421.57 103.339 415.75 99.3185 415.39 92.7185ZM502.949 81.9785C502.949 94.2185 494.489 103.339 482.129 103.339C469.769 103.339 461.309 94.2185 461.309 81.9785C461.309 69.7385 469.769 60.6185 482.129 60.6185C494.489 60.6185 502.949 69.7385 502.949 81.9785ZM470.489 81.9785C470.489 89.8985 475.049 95.7185 482.129 95.7185C489.149 95.7185 493.709 89.8985 493.709 81.9785C493.709 74.0585 489.149 68.2385 482.129 68.2385C475.049 68.2385 470.489 74.0585 470.489 81.9785ZM527.719 87.5585V72.1385H536.179V102.979H528.679L527.899 99.2585C525.919 101.659 523.219 103.339 518.839 103.339C512.479 103.339 506.599 100.159 506.599 89.2385V72.1385H515.059V88.0985C515.059 93.6185 516.859 96.3185 521.059 96.3185C525.259 96.3185 527.719 93.2585 527.719 87.5585ZM543.916 94.1585V79.2785H538.816V72.1385H543.916V63.4985H552.376V72.1385H559.456V79.2785H552.376V92.7785C552.376 94.9385 553.216 95.8385 555.436 95.8385H559.636V102.979H552.736C546.856 102.979 543.916 100.039 543.916 94.1585ZM563.431 98.7785C563.431 96.9385 563.931 95.6585 564.931 94.9385C565.931 94.1785 567.151 93.7985 568.591 93.7985C569.991 93.7985 571.191 94.1785 572.191 94.9385C573.191 95.6585 573.691 96.9385 573.691 98.7785C573.691 100.539 573.191 101.819 572.191 102.619C571.191 103.379 569.991 103.759 568.591 103.759C567.151 103.759 565.931 103.379 564.931 102.619C563.931 101.819 563.431 100.539 563.431 98.7785ZM563.431 74.5985C563.431 72.7585 563.931 71.4785 564.931 70.7585C565.931 69.9985 567.151 69.6185 568.591 69.6185C569.991 69.6185 571.191 69.9985 572.191 70.7585C573.191 71.4785 573.691 72.7585 573.691 74.5985C573.691 76.3585 573.191 77.6385 572.191 78.4385C571.191 79.1985 569.991 79.5785 568.591 79.5785C567.151 79.5785 565.931 79.1985 564.931 78.4385C563.931 77.6385 563.431 76.3585 563.431 74.5985ZM620.083 102.979H594.403V60.9785H603.403V95.2385H620.083V102.979ZM627.872 68.8385C625.112 68.8385 622.952 66.7985 622.952 64.0985C622.952 61.3385 625.112 59.2985 627.872 59.2985C630.632 59.2985 632.792 61.3385 632.792 64.0985C632.792 66.7985 630.632 68.8385 627.872 68.8385ZM623.612 102.979V72.1385H632.132V102.979H623.612ZM674.267 71.7785C680.627 71.7785 685.667 75.3785 685.667 85.2785V102.979H677.207V85.7585C677.207 81.1385 675.527 78.7385 671.867 78.7385C668.207 78.7385 665.747 81.4385 665.747 86.1185V102.979H657.287V85.7585C657.287 81.1385 655.607 78.7385 651.887 78.7385C648.227 78.7385 645.827 81.5585 645.827 86.1785V102.979H637.367V72.1385H644.747L645.527 75.9785C647.387 73.5785 650.087 71.8385 654.587 71.7785C658.367 71.7185 661.907 73.0985 663.827 76.9985C665.987 73.6985 669.587 71.7785 674.267 71.7785ZM694.641 68.8385C691.881 68.8385 689.721 66.7985 689.721 64.0985C689.721 61.3385 691.881 59.2985 694.641 59.2985C697.401 59.2985 699.561 61.3385 699.561 64.0985C699.561 66.7985 697.401 68.8385 694.641 68.8385ZM690.381 102.979V72.1385H698.901V102.979H690.381ZM706.356 94.1585V79.2785H701.256V72.1385H706.356V63.4985H714.816V72.1385H721.896V79.2785H714.816V92.7785C714.816 94.9385 715.656 95.8385 717.876 95.8385H722.076V102.979H715.176C709.296 102.979 706.356 100.039 706.356 94.1585ZM740.163 103.339C729.903 103.339 723.723 97.1585 723.723 87.6185C723.723 78.0185 730.023 71.7785 739.563 71.7785C748.803 71.7785 755.043 77.5385 755.163 86.5985C755.163 87.4985 755.103 88.5185 754.923 89.4785H732.543V89.8985C732.723 94.2785 735.543 96.9185 739.803 96.9185C743.223 96.9185 745.623 95.4185 746.343 92.5385H754.683C753.723 98.5385 748.383 103.339 740.163 103.339ZM732.723 83.9585H746.643C746.043 80.1785 743.463 78.0785 739.623 78.0785C735.963 78.0785 733.203 80.2985 732.723 83.9585ZM781.566 75.9785V60.9785H790.026V102.979H782.646L781.806 98.7185C779.766 101.359 776.766 103.339 772.326 103.339C764.046 103.339 757.986 97.2785 757.986 87.4985C757.986 77.9585 764.046 71.7785 772.266 71.7785C776.526 71.7785 779.586 73.4585 781.566 75.9785ZM774.186 96.4385C778.806 96.4385 781.686 92.8385 781.686 87.6185C781.686 82.3385 778.806 78.6785 774.186 78.6785C769.566 78.6785 766.626 82.2785 766.626 87.5585C766.626 92.8385 769.566 96.4385 774.186 96.4385ZM815.784 89.3585H794.784V82.4585H815.784V89.3585ZM813.961 68.7185V60.9785H847.261V68.7185H835.081V102.979H826.081V68.7185H813.961ZM854.576 68.8385C851.816 68.8385 849.656 66.7985 849.656 64.0985C849.656 61.3385 851.816 59.2985 854.576 59.2985C857.336 59.2985 859.496 61.3385 859.496 64.0985C859.496 66.7985 857.336 68.8385 854.576 68.8385ZM850.316 102.979V72.1385H858.836V102.979H850.316ZM900.971 71.7785C907.331 71.7785 912.371 75.3785 912.371 85.2785V102.979H903.911V85.7585C903.911 81.1385 902.231 78.7385 898.571 78.7385C894.911 78.7385 892.451 81.4385 892.451 86.1185V102.979H883.991V85.7585C883.991 81.1385 882.311 78.7385 878.591 78.7385C874.931 78.7385 872.531 81.5585 872.531 86.1785V102.979H864.071V72.1385H871.451L872.231 75.9785C874.091 73.5785 876.791 71.8385 881.291 71.7785C885.071 71.7185 888.611 73.0985 890.531 76.9985C892.691 73.6985 896.291 71.7785 900.971 71.7785ZM932.207 103.339C921.947 103.339 915.767 97.1585 915.767 87.6185C915.767 78.0185 922.067 71.7785 931.607 71.7785C940.847 71.7785 947.087 77.5385 947.207 86.5985C947.207 87.4985 947.147 88.5185 946.967 89.4785H924.587V89.8985C924.767 94.2785 927.587 96.9185 931.847 96.9185C935.267 96.9185 937.667 95.4185 938.387 92.5385H946.727C945.767 98.5385 940.427 103.339 932.207 103.339ZM924.767 83.9585H938.687C938.087 80.1785 935.507 78.0785 931.667 78.0785C928.007 78.0785 925.247 80.2985 924.767 83.9585ZM1006.13 81.9785C1006.13 94.2185 997.673 103.339 985.313 103.339C972.953 103.339 964.493 94.2185 964.493 81.9785C964.493 69.7385 972.953 60.6185 985.313 60.6185C997.673 60.6185 1006.13 69.7385 1006.13 81.9785ZM973.673 81.9785C973.673 89.8985 978.233 95.7185 985.313 95.7185C992.333 95.7185 996.893 89.8985 996.893 81.9785C996.893 74.0585 992.333 68.2385 985.313 68.2385C978.233 68.2385 973.673 74.0585 973.673 81.9785ZM1007.44 79.2785V72.1385H1012.54V69.8585C1012.54 64.1585 1015.6 60.9785 1021.84 60.9785H1028.74V68.1785H1023.34C1021.66 68.1785 1020.82 68.9585 1020.82 70.6985V72.1385H1028.74V79.2785H1021V102.979H1012.54V79.2785H1007.44ZM1029.93 79.2785V72.1385H1035.03V69.8585C1035.03 64.1585 1038.09 60.9785 1044.33 60.9785H1051.23V68.1785H1045.83C1044.15 68.1785 1043.31 68.9585 1043.31 70.6985V72.1385H1051.23V79.2785H1043.49V102.979H1035.03V79.2785H1029.93ZM1068.02 103.339C1057.76 103.339 1051.58 97.1585 1051.58 87.6185C1051.58 78.0185 1057.88 71.7785 1067.42 71.7785C1076.66 71.7785 1082.9 77.5385 1083.02 86.5985C1083.02 87.4985 1082.96 88.5185 1082.78 89.4785H1060.4V89.8985C1060.58 94.2785 1063.4 96.9185 1067.66 96.9185C1071.08 96.9185 1073.48 95.4185 1074.2 92.5385H1082.54C1081.58 98.5385 1076.24 103.339 1068.02 103.339ZM1060.58 83.9585H1074.5C1073.9 80.1785 1071.32 78.0785 1067.48 78.0785C1063.82 78.0785 1061.06 80.2985 1060.58 83.9585ZM1104.38 72.1385H1105.82V79.8185H1102.46C1097.42 79.8185 1095.5 83.1785 1095.5 87.8585V102.979H1087.04V72.1385H1094.72L1095.5 76.7585C1097.18 73.9985 1099.58 72.1385 1104.38 72.1385ZM1118.24 88.7585H1111.1L1109.6 60.1385H1119.74L1118.24 88.7585ZM1109.48 98.7785C1109.48 96.9385 1109.98 95.6585 1110.98 94.9385C1111.98 94.1785 1113.2 93.7985 1114.64 93.7985C1116.04 93.7985 1117.24 94.1785 1118.24 94.9385C1119.24 95.6585 1119.74 96.9385 1119.74 98.7785C1119.74 100.539 1119.24 101.819 1118.24 102.619C1117.24 103.379 1116.04 103.759 1114.64 103.759C1113.2 103.759 1111.98 103.379 1110.98 102.619C1109.98 101.819 1109.48 100.539 1109.48 98.7785Z" fill="white"/>
<path d="M185.949 162.979V136.379H202.897V139.419H189.255V147.931H200.617V150.971H189.255V159.939H203.391V162.979H185.949ZM215.765 143.371C220.135 143.371 223.593 145.765 223.593 152.187V162.979H220.477V152.377C220.477 148.349 218.615 146.221 215.233 146.221C211.585 146.221 209.381 148.919 209.381 153.289V162.979H206.265V143.599H208.963L209.381 146.221C210.521 144.739 212.497 143.371 215.765 143.371ZM228.972 140.331C227.832 140.331 226.958 139.495 226.958 138.317C226.958 137.139 227.832 136.303 228.972 136.303C230.112 136.303 230.986 137.139 230.986 138.317C230.986 139.495 230.112 140.331 228.972 140.331ZM222.854 170.579V167.729H225.286C226.844 167.729 227.414 167.083 227.414 165.601V143.599H230.53V165.525C230.53 168.945 229.086 170.579 225.476 170.579H222.854ZM243.343 163.207C237.681 163.207 233.729 159.179 233.729 153.289C233.729 147.399 237.681 143.371 243.343 143.371C249.005 143.371 252.957 147.399 252.957 153.289C252.957 159.179 249.005 163.207 243.343 163.207ZM243.343 160.433C247.181 160.433 249.765 157.431 249.765 153.289C249.765 149.147 247.181 146.145 243.343 146.145C239.505 146.145 236.921 149.147 236.921 153.289C236.921 157.431 239.505 160.433 243.343 160.433ZM260.921 163.093L253.359 143.599H256.665L262.631 159.065L268.407 143.599H271.713L262.783 166.247C261.567 169.363 260.845 170.579 258.109 170.579H254.385V167.729H257.159C258.945 167.729 259.249 167.273 259.971 165.449L260.921 163.093ZM281.93 162.979V160.281L292.266 151.313C294.736 149.185 296.788 147.133 296.788 144.245C296.788 140.901 294.508 139.001 290.974 139.001C287.554 139.001 285.274 141.281 285.274 144.929V145.423H282.082V144.739C282.082 139.723 285.616 136.151 290.974 136.151C296.712 136.151 300.056 139.305 300.056 144.093C300.056 148.083 297.472 150.591 294.318 153.289L286.338 160.053H300.246V162.979H281.93ZM302.684 150.287V149.071C302.684 141.509 306.788 136.151 312.792 136.151C318.758 136.151 322.862 141.509 322.862 149.071V150.287C322.862 158.229 318.758 163.207 312.792 163.207C306.788 163.207 302.684 158.229 302.684 150.287ZM319.632 150.173V149.185C319.632 142.877 316.896 139.077 312.792 139.077C308.65 139.077 305.914 142.877 305.914 149.185V150.173C305.914 156.481 308.65 160.281 312.792 160.281C316.896 160.281 319.632 156.481 319.632 150.173ZM331.533 135.467C333.408 135.467 334.827 136.214 335.789 137.709C336.752 139.178 337.233 141.255 337.233 143.941C337.233 146.626 336.765 148.729 335.827 150.249C334.915 151.743 333.484 152.491 331.533 152.491C330.343 152.491 329.329 152.149 328.493 151.465C327.657 150.781 327.024 149.805 326.593 148.539C326.188 147.247 325.985 145.714 325.985 143.941C325.985 141.255 326.429 139.178 327.315 137.709C328.202 136.214 329.608 135.467 331.533 135.467ZM331.533 137.823C330.571 137.823 329.861 138.342 329.405 139.381C328.975 140.394 328.759 141.914 328.759 143.941C328.759 145.967 328.975 147.5 329.405 148.539C329.861 149.577 330.571 150.097 331.533 150.097C332.521 150.097 333.256 149.59 333.737 148.577C334.219 147.538 334.459 145.993 334.459 143.941C334.459 141.914 334.219 140.394 333.737 139.381C333.256 138.342 332.521 137.823 331.533 137.823ZM348.899 135.847L333.851 162.979H330.925L345.973 135.847H348.899ZM348.139 146.335C349.381 146.335 350.419 146.677 351.255 147.361C352.091 148.019 352.725 148.982 353.155 150.249C353.611 151.49 353.839 153.01 353.839 154.809C353.839 157.494 353.371 159.597 352.433 161.117C351.521 162.611 350.09 163.359 348.139 163.359C346.949 163.359 345.935 163.017 345.099 162.333C344.263 161.649 343.63 160.673 343.199 159.407C342.794 158.115 342.591 156.582 342.591 154.809C342.591 152.123 343.035 150.046 343.921 148.577C344.808 147.082 346.214 146.335 348.139 146.335ZM348.139 148.729C347.177 148.729 346.467 149.235 346.011 150.249C345.581 151.262 345.365 152.782 345.365 154.809C345.365 156.861 345.581 158.406 346.011 159.445C346.467 160.458 347.177 160.965 348.139 160.965C349.127 160.965 349.862 160.458 350.343 159.445C350.825 158.431 351.065 156.886 351.065 154.809C351.065 152.782 350.825 151.262 350.343 150.249C349.862 149.235 349.127 148.729 348.139 148.729ZM391.869 149.679C391.869 157.507 386.663 163.207 379.177 163.207C371.691 163.207 366.485 157.507 366.485 149.679C366.485 141.851 371.691 136.151 379.177 136.151C386.663 136.151 391.869 141.851 391.869 149.679ZM369.867 149.679C369.867 155.797 373.629 160.167 379.177 160.167C384.725 160.167 388.487 155.797 388.487 149.679C388.487 143.561 384.725 139.191 379.177 139.191C373.629 139.191 369.867 143.561 369.867 149.679ZM393.159 146.449V143.599H396.655V141.433C396.655 138.013 398.099 136.379 401.709 136.379H405.243V139.229H401.899C400.341 139.229 399.771 139.875 399.771 141.357V143.599H405.243V146.449H399.771V162.979H396.655V146.449H393.159ZM405.879 146.449V143.599H409.375V141.433C409.375 138.013 410.819 136.379 414.429 136.379H417.963V139.229H414.619C413.061 139.229 412.491 139.875 412.491 141.357V143.599H417.963V146.449H412.491V162.979H409.375V146.449H405.879ZM437.645 153.137L427.613 136.379H431.489L439.317 149.565L447.259 136.379H450.983L440.951 153.137V162.979H437.645V153.137ZM458.693 163.207C453.031 163.207 449.079 159.179 449.079 153.289C449.079 147.399 453.031 143.371 458.693 143.371C464.355 143.371 468.307 147.399 468.307 153.289C468.307 159.179 464.355 163.207 458.693 163.207ZM458.693 160.433C462.531 160.433 465.115 157.431 465.115 153.289C465.115 149.147 462.531 146.145 458.693 146.145C454.855 146.145 452.271 149.147 452.271 153.289C452.271 157.431 454.855 160.433 458.693 160.433ZM485.066 153.289V143.599H488.182V162.979H485.484L485.066 160.395C483.926 161.839 482.064 163.207 478.872 163.207C474.616 163.207 471.234 160.813 471.234 154.391V143.599H474.35V154.201C474.35 158.229 476.174 160.357 479.404 160.357C482.938 160.357 485.066 157.659 485.066 153.289ZM501.018 143.599H501.892V146.639H500.334C496.268 146.639 495.166 150.021 495.166 153.099V162.979H492.05V143.599H494.748L495.166 146.525C496.078 145.043 497.56 143.599 501.018 143.599ZM514.234 162.979V136.379H530.764V139.419H517.54V148.311H528.484V151.351H517.54V162.979H514.234ZM535.071 140.331C533.931 140.331 533.057 139.495 533.057 138.317C533.057 137.139 533.931 136.303 535.071 136.303C536.211 136.303 537.085 137.139 537.085 138.317C537.085 139.495 536.211 140.331 535.071 140.331ZM533.475 162.979V143.599H536.591V162.979H533.475ZM549.447 143.599H550.321V146.639H548.763C544.697 146.639 543.595 150.021 543.595 153.099V162.979H540.479V143.599H543.177L543.595 146.525C544.507 145.043 545.989 143.599 549.447 143.599ZM551.436 156.595H554.628C554.742 158.875 556.756 160.547 559.986 160.547C562.722 160.547 564.66 159.369 564.66 157.583C564.66 155.151 562.532 154.961 559.644 154.619C555.312 154.087 551.854 153.213 551.854 149.185C551.854 145.651 555.084 143.333 559.454 143.371C563.862 143.409 567.054 145.461 567.358 149.489H564.166C563.938 147.513 562.114 146.031 559.454 146.031C556.756 146.031 554.932 147.171 554.932 148.957C554.932 151.085 556.984 151.351 559.796 151.693C564.204 152.225 567.738 153.061 567.738 157.355C567.738 160.965 564.28 163.207 559.986 163.207C554.97 163.207 551.512 160.851 551.436 156.595ZM572.261 157.925V146.449H568.765V143.599H572.261V138.165H575.377V143.599H580.393V146.449H575.377V157.887C575.377 159.521 575.947 160.129 577.619 160.129H580.697V162.979H577.315C573.591 162.979 572.261 161.345 572.261 157.925ZM593.038 162.979V136.379H603.26C608.58 136.379 612.076 139.571 612.076 144.549C612.076 149.527 608.58 152.757 603.26 152.757H596.344V162.979H593.038ZM602.994 139.419H596.344V149.717H602.956C606.452 149.717 608.694 147.703 608.694 144.549C608.694 141.395 606.49 139.419 602.994 139.419ZM628.331 153.289V143.599H631.447V162.979H628.749L628.331 160.395C627.191 161.839 625.329 163.207 622.137 163.207C617.881 163.207 614.499 160.813 614.499 154.391V143.599H617.615V154.201C617.615 158.229 619.439 160.357 622.669 160.357C626.203 160.357 628.331 157.659 628.331 153.289ZM644.283 143.599H645.157V146.639H643.599C639.533 146.639 638.431 150.021 638.431 153.099V162.979H635.315V143.599H638.013L638.431 146.525C639.343 145.043 640.825 143.599 644.283 143.599ZM655.066 163.207C649.404 163.207 645.68 159.369 645.68 153.327C645.68 147.399 649.518 143.371 655.142 143.371C659.892 143.371 662.894 146.031 663.692 150.287H660.424C659.854 147.703 657.954 146.145 655.104 146.145C651.38 146.145 648.872 149.109 648.872 153.327C648.872 157.545 651.38 160.433 655.104 160.433C657.878 160.433 659.778 158.837 660.386 156.367H663.692C662.932 160.547 659.778 163.207 655.066 163.207ZM676.228 143.371C680.56 143.371 684.094 145.765 684.094 152.187V162.979H680.978V152.377C680.978 148.349 679.04 146.221 675.696 146.221C672.086 146.221 669.844 148.919 669.844 153.289V162.979H666.728V136.379H669.844V146.791C670.984 144.967 672.96 143.371 676.228 143.371ZM704.824 160.129H705.812V162.979H704.102C701.518 162.979 700.644 161.877 700.606 159.977C699.39 161.725 697.452 163.207 694.108 163.207C689.852 163.207 686.964 161.079 686.964 157.545C686.964 153.669 689.662 151.503 694.754 151.503H700.454V150.173C700.454 147.665 698.668 146.145 695.628 146.145C692.892 146.145 691.068 147.437 690.688 149.413H687.572C688.028 145.613 691.106 143.371 695.78 143.371C700.72 143.371 703.57 145.841 703.57 150.363V158.837C703.57 159.863 703.95 160.129 704.824 160.129ZM700.454 155.075V154.125H694.45C691.676 154.125 690.118 155.151 690.118 157.355C690.118 159.255 691.752 160.547 694.336 160.547C698.212 160.547 700.454 158.305 700.454 155.075ZM707.03 156.595H710.222C710.336 158.875 712.35 160.547 715.58 160.547C718.316 160.547 720.254 159.369 720.254 157.583C720.254 155.151 718.126 154.961 715.238 154.619C710.906 154.087 707.448 153.213 707.448 149.185C707.448 145.651 710.678 143.333 715.048 143.371C719.456 143.409 722.648 145.461 722.952 149.489H719.76C719.532 147.513 717.708 146.031 715.048 146.031C712.35 146.031 710.526 147.171 710.526 148.957C710.526 151.085 712.578 151.351 715.39 151.693C719.798 152.225 723.332 153.061 723.332 157.355C723.332 160.965 719.874 163.207 715.58 163.207C710.564 163.207 707.106 160.851 707.03 156.595ZM735.341 163.207C729.527 163.207 725.727 159.217 725.727 153.289C725.727 147.399 729.451 143.371 734.923 143.371C740.395 143.371 743.967 146.829 744.119 152.567C744.119 152.985 744.081 153.441 744.043 153.897H728.995V154.163C729.109 157.849 731.427 160.433 735.113 160.433C737.849 160.433 739.977 158.989 740.623 156.481H743.777C743.017 160.357 739.825 163.207 735.341 163.207ZM729.185 151.313H740.775C740.471 147.969 738.191 146.107 734.961 146.107C732.111 146.107 729.489 148.159 729.185 151.313ZM763.092 162.979L755.34 136.379H758.798L765.03 158.723L771.566 136.379H774.91L781.218 158.723L787.488 136.379H790.908L783.118 162.979H779.166L773.086 141.889L767.044 162.979H763.092ZM794.851 140.331C793.711 140.331 792.837 139.495 792.837 138.317C792.837 137.139 793.711 136.303 794.851 136.303C795.991 136.303 796.865 137.139 796.865 138.317C796.865 139.495 795.991 140.331 794.851 140.331ZM793.255 162.979V143.599H796.371V162.979H793.255ZM801.704 157.925V146.449H798.208V143.599H801.704V138.165H804.82V143.599H809.836V146.449H804.82V157.887C804.82 159.521 805.39 160.129 807.062 160.129H810.14V162.979H806.758C803.034 162.979 801.704 161.345 801.704 157.925ZM821.96 143.371C826.292 143.371 829.826 145.765 829.826 152.187V162.979H826.71V152.377C826.71 148.349 824.772 146.221 821.428 146.221C817.818 146.221 815.576 148.919 815.576 153.289V162.979H812.46V136.379H815.576V146.791C816.716 144.967 818.692 143.371 821.96 143.371ZM854.877 163.207C847.239 163.207 842.451 157.811 842.451 149.679C842.451 141.623 847.429 136.151 855.143 136.151C861.033 136.151 865.327 139.571 866.315 145.081H862.819C861.793 141.395 858.981 139.191 854.991 139.191C849.405 139.191 845.833 143.523 845.833 149.679C845.833 155.797 849.253 160.167 854.839 160.167C858.943 160.167 861.793 158.001 862.781 154.277H866.277C865.289 159.787 860.881 163.207 854.877 163.207ZM878.363 163.207C872.701 163.207 868.749 159.179 868.749 153.289C868.749 147.399 872.701 143.371 878.363 143.371C884.025 143.371 887.977 147.399 887.977 153.289C887.977 159.179 884.025 163.207 878.363 163.207ZM878.363 160.433C882.201 160.433 884.785 157.431 884.785 153.289C884.785 149.147 882.201 146.145 878.363 146.145C874.525 146.145 871.941 149.147 871.941 153.289C871.941 157.431 874.525 160.433 878.363 160.433ZM906.446 146.563V136.379H909.562V162.979H906.864L906.446 159.863C905.154 161.649 903.064 163.207 899.796 163.207C894.438 163.207 890.486 159.597 890.486 153.289C890.486 147.361 894.438 143.371 899.796 143.371C903.064 143.371 905.268 144.701 906.446 146.563ZM900.1 160.433C903.9 160.433 906.484 157.507 906.484 153.365C906.484 149.109 903.9 146.145 900.1 146.145C896.262 146.145 893.678 149.071 893.678 153.289C893.678 157.507 896.262 160.433 900.1 160.433ZM922.357 163.207C916.543 163.207 912.743 159.217 912.743 153.289C912.743 147.399 916.467 143.371 921.939 143.371C927.411 143.371 930.983 146.829 931.135 152.567C931.135 152.985 931.097 153.441 931.059 153.897H916.011V154.163C916.125 157.849 918.443 160.433 922.129 160.433C924.865 160.433 926.993 158.989 927.639 156.481H930.793C930.033 160.357 926.841 163.207 922.357 163.207ZM916.201 151.313H927.791C927.487 147.969 925.207 146.107 921.977 146.107C919.127 146.107 916.505 148.159 916.201 151.313ZM955.618 163.207C948.018 163.207 942.964 157.849 942.964 149.679C942.964 141.509 947.98 136.151 956.15 136.151C962.572 136.151 967.094 140.103 967.778 145.841H962.078C961.394 142.915 959.266 140.977 955.998 140.977C951.552 140.977 948.778 144.549 948.778 149.679C948.778 154.809 951.438 158.381 955.998 158.381C959.038 158.381 962.116 156.785 962.648 153.061V152.719H956.036V148.197H967.93V162.979H963.94L963.37 159.787C961.964 161.649 959.38 163.207 955.618 163.207ZM988.375 162.979H972.111V136.379H977.811V158.077H988.375V162.979ZM1014.44 149.679C1014.44 157.431 1009.09 163.207 1001.26 163.207C993.429 163.207 988.071 157.431 988.071 149.679C988.071 141.927 993.429 136.151 1001.26 136.151C1009.09 136.151 1014.44 141.927 1014.44 149.679ZM993.885 149.679C993.885 154.695 996.773 158.381 1001.26 158.381C1005.7 158.381 1008.59 154.695 1008.59 149.679C1008.59 144.663 1005.7 140.977 1001.26 140.977C996.773 140.977 993.885 144.663 993.885 149.679ZM1021.83 162.979L1014.42 136.379L1020.35 136.341L1025.25 155.797L1030.46 136.379H1035.59L1040.64 155.797L1045.66 136.379H1051.43L1044.02 162.979H1037.49L1032.85 145.309L1028.37 162.979H1021.83ZM1052.02 162.979V158.761L1062.13 150.401C1064.45 148.501 1065.89 146.905 1065.89 144.739C1065.89 142.117 1064.18 140.749 1061.75 140.749C1059.2 140.749 1057.45 142.497 1057.45 145.385V145.803H1051.94V145.043C1051.94 140.027 1055.71 136.151 1061.79 136.151C1068.02 136.151 1071.4 139.533 1071.4 144.511C1071.4 148.425 1069.27 150.819 1065.93 153.517L1059.96 158.381H1071.55V162.979H1052.02ZM1073.51 150.287V149.071C1073.51 141.129 1078.03 136.151 1084.45 136.151C1090.91 136.151 1095.44 141.129 1095.44 149.071V150.287C1095.44 158.381 1090.91 163.207 1084.45 163.207C1078.03 163.207 1073.51 158.381 1073.51 150.287ZM1089.96 150.097V149.261C1089.96 143.789 1087.72 140.787 1084.45 140.787C1081.22 140.787 1078.98 143.789 1078.98 149.261V150.097C1078.98 155.607 1081.22 158.571 1084.45 158.571C1087.72 158.571 1089.96 155.607 1089.96 150.097Z" fill="white"/>
<path d="M176.486 306.979V246.312H184.026V272.659H215.4V246.312H222.94V306.979H215.4V279.592H184.026V306.979H176.486ZM263.749 284.879V262.779H270.856V306.979H264.702L263.749 301.085C261.149 304.379 256.902 307.499 249.622 307.499C239.916 307.499 232.202 302.039 232.202 287.392V262.779H239.309V286.959C239.309 296.145 243.469 300.999 250.836 300.999C258.896 300.999 263.749 294.845 263.749 284.879ZM300.13 262.779H302.123V269.712H298.57C289.297 269.712 286.783 277.425 286.783 284.445V306.979H279.677V262.779H285.83L286.783 269.452C288.863 266.072 292.243 262.779 300.13 262.779ZM327.87 262.779H329.863V269.712H326.31C317.037 269.712 314.523 277.425 314.523 284.445V306.979H307.417V262.779H313.57L314.523 269.452C316.603 266.072 319.983 262.779 327.87 262.779ZM348.322 307.239L331.075 262.779H338.615L352.222 298.052L365.395 262.779H372.935L352.569 314.432C349.795 321.539 348.149 324.312 341.909 324.312H333.415V317.812H339.742C343.815 317.812 344.509 316.772 346.155 312.612L348.322 307.239ZM376.429 297.879C380.676 297.879 383.276 301.952 383.276 306.719C383.276 314.085 378.682 318.505 371.056 318.679V314.605C376.602 314.519 378.336 310.619 378.336 307.672C378.336 307.239 378.336 306.892 378.249 306.545C377.556 307.239 376.342 307.585 375.302 307.585C372.702 307.585 370.709 306.025 370.709 302.905C370.709 300.045 372.789 297.879 376.429 297.879ZM468.709 276.645C468.709 294.499 456.836 307.499 439.763 307.499C422.689 307.499 410.816 294.499 410.816 276.645C410.816 258.792 422.689 245.792 439.763 245.792C456.836 245.792 468.709 258.792 468.709 276.645ZM418.529 276.645C418.529 290.599 427.109 300.565 439.763 300.565C452.416 300.565 460.996 290.599 460.996 276.645C460.996 262.692 452.416 252.725 439.763 252.725C427.109 252.725 418.529 262.692 418.529 276.645ZM471.652 269.279V262.779H479.625V257.839C479.625 250.039 482.919 246.312 491.152 246.312H499.212V252.812H491.585C488.032 252.812 486.732 254.285 486.732 257.665V262.779H499.212V269.279H486.732V306.979H479.625V269.279H471.652ZM500.662 269.279V262.779H508.635V257.839C508.635 250.039 511.928 246.312 520.162 246.312H528.222V252.812H520.595C517.042 252.812 515.742 254.285 515.742 257.665V262.779H528.222V269.279H515.742V306.979H508.635V269.279H500.662ZM550.825 307.499C537.565 307.499 528.898 298.399 528.898 284.879C528.898 271.445 537.391 262.259 549.871 262.259C562.351 262.259 570.498 270.145 570.845 283.232C570.845 284.185 570.758 285.225 570.671 286.265H536.351V286.872C536.611 295.279 541.898 301.172 550.305 301.172C556.545 301.172 561.398 297.879 562.871 292.159H570.065C568.331 300.999 561.051 307.499 550.825 307.499ZM536.785 280.372H563.218C562.525 272.745 557.325 268.499 549.958 268.499C543.458 268.499 537.478 273.179 536.785 280.372ZM598.541 262.779H600.534V269.712H596.981C587.708 269.712 585.194 277.425 585.194 284.445V306.979H578.088V262.779H584.241L585.194 269.452C587.274 266.072 590.654 262.779 598.541 262.779ZM628.683 306.979V246.312H667.337V253.245H636.223V272.659H662.137V279.592H636.223V300.045H668.463V306.979H628.683ZM696.685 262.259C706.652 262.259 714.539 267.719 714.539 282.365V306.979H707.432V282.799C707.432 273.612 703.185 268.759 695.472 268.759C687.152 268.759 682.125 274.912 682.125 284.879V306.979H675.019V262.779H681.172L682.125 268.759C684.725 265.379 689.232 262.259 696.685 262.259ZM757.065 269.539V246.312H764.172V306.979H758.018L757.065 299.872C754.118 303.945 749.352 307.499 741.898 307.499C729.678 307.499 720.665 299.265 720.665 284.879C720.665 271.359 729.678 262.259 741.898 262.259C749.352 262.259 754.378 265.292 757.065 269.539ZM742.592 301.172C751.258 301.172 757.152 294.499 757.152 285.052C757.152 275.345 751.258 268.585 742.592 268.585C733.838 268.585 727.945 275.259 727.945 284.879C727.945 294.499 733.838 301.172 742.592 301.172ZM771.166 292.419H778.446C778.706 297.619 783.299 301.432 790.666 301.432C796.906 301.432 801.326 298.745 801.326 294.672C801.326 289.125 796.473 288.692 789.886 287.912C780.006 286.699 772.119 284.705 772.119 275.519C772.119 267.459 779.486 262.172 789.453 262.259C799.506 262.345 806.786 267.025 807.479 276.212H800.199C799.679 271.705 795.519 268.325 789.453 268.325C783.299 268.325 779.139 270.925 779.139 274.999C779.139 279.852 783.819 280.459 790.233 281.239C800.286 282.452 808.346 284.359 808.346 294.152C808.346 302.385 800.459 307.499 790.666 307.499C779.226 307.499 771.339 302.125 771.166 292.419ZM838.224 306.979V246.312H845.764V306.979H838.224ZM877.281 262.259C887.247 262.259 895.134 267.719 895.134 282.365V306.979H888.027V282.799C888.027 273.612 883.781 268.759 876.067 268.759C867.747 268.759 862.72 274.912 862.72 284.879V306.979H855.614V262.779H861.767L862.72 268.759C865.32 265.379 869.827 262.259 877.281 262.259ZM934.764 252.899V246.312H941.87V306.979H934.59V263.472C933.724 264.252 932.337 264.599 930.43 264.599H920.637V258.099H930.517C933.377 258.099 934.764 255.932 934.764 252.899ZM948.921 306.979V300.825L972.495 280.372C978.128 275.519 982.808 270.839 982.808 264.252C982.808 256.625 977.608 252.292 969.548 252.292C961.748 252.292 956.548 257.492 956.548 265.812V266.939H949.268V265.379C949.268 253.939 957.328 245.792 969.548 245.792C982.635 245.792 990.261 252.985 990.261 263.905C990.261 273.005 984.368 278.725 977.175 284.879L958.975 300.305H990.695V306.979H948.921ZM1019.05 262.259C1028.93 262.259 1036.99 267.719 1036.99 282.365V306.979H1029.88V282.799C1029.88 273.612 1025.46 268.759 1017.83 268.759C1009.6 268.759 1004.49 274.912 1004.49 284.879V306.979H997.382V246.312H1004.49V270.059C1007.09 265.899 1011.59 262.259 1019.05 262.259ZM1065.63 262.779H1067.63V269.712H1064.07C1054.8 269.712 1052.29 277.425 1052.29 284.445V306.979H1045.18V262.779H1051.33L1052.29 269.452C1054.37 266.072 1057.75 262.779 1065.63 262.779ZM1070.17 292.419H1077.45C1077.71 297.619 1082.3 301.432 1089.67 301.432C1095.91 301.432 1100.33 298.745 1100.33 294.672C1100.33 289.125 1095.48 288.692 1088.89 287.912C1079.01 286.699 1071.12 284.705 1071.12 275.519C1071.12 267.459 1078.49 262.172 1088.46 262.259C1098.51 262.345 1105.79 267.025 1106.48 276.212H1099.2C1098.68 271.705 1094.52 268.325 1088.46 268.325C1082.3 268.325 1078.14 270.925 1078.14 274.999C1078.14 279.852 1082.82 280.459 1089.24 281.239C1099.29 282.452 1107.35 284.359 1107.35 294.152C1107.35 302.385 1099.46 307.499 1089.67 307.499C1078.23 307.499 1070.34 302.125 1070.17 292.419ZM335.051 379.432C340.598 380.472 346.404 384.892 346.404 394.165C346.404 404.479 337.738 411.499 324.564 411.499C311.391 411.499 302.898 404.305 302.898 392.259H310.091C310.178 400.232 316.418 404.999 324.998 404.999C332.884 404.999 338.951 400.579 338.951 393.645C338.951 387.319 333.751 383.245 324.304 383.245H319.104V376.919H323.871C332.884 376.919 337.391 372.412 337.391 366.259C337.391 360.105 331.844 356.292 324.564 356.292C316.938 356.292 311.391 360.885 311.304 367.819H304.111C304.198 357.159 312.518 349.792 324.478 349.792C336.958 349.792 344.844 356.292 344.844 365.825C344.844 373.452 340.858 377.872 335.051 379.432ZM352.758 382.032V379.259C352.758 362.012 362.118 349.792 375.812 349.792C389.418 349.792 398.778 362.012 398.778 379.259V382.032C398.778 400.145 389.418 411.499 375.812 411.499C362.118 411.499 352.758 400.145 352.758 382.032ZM391.412 381.772V379.519C391.412 365.132 385.172 356.465 375.812 356.465C366.365 356.465 360.125 365.132 360.125 379.519V381.772C360.125 396.159 366.365 404.825 375.812 404.825C385.172 404.825 391.412 396.159 391.412 381.772ZM455.821 366.259C465.008 366.259 472.548 371.545 472.548 385.499V410.979H465.441V385.932C465.441 377.265 461.628 372.759 454.955 372.759C447.588 372.759 443.081 378.305 443.081 387.319V410.979H435.975V385.932C435.975 377.265 432.075 372.759 425.315 372.759C418.035 372.759 413.615 378.825 413.615 387.665V410.979H406.508V366.779H412.661L413.615 372.845C415.955 369.639 419.681 366.259 426.528 366.259C432.681 366.259 437.968 369.032 440.481 374.665C443.168 369.899 447.935 366.259 455.821 366.259ZM484.437 359.325C481.837 359.325 479.844 357.419 479.844 354.732C479.844 352.045 481.837 350.139 484.437 350.139C487.037 350.139 489.031 352.045 489.031 354.732C489.031 357.419 487.037 359.325 484.437 359.325ZM480.797 410.979V366.779H487.904V410.979H480.797ZM518.44 366.259C528.407 366.259 536.293 371.719 536.293 386.365V410.979H529.187V386.799C529.187 377.612 524.94 372.759 517.227 372.759C508.907 372.759 503.88 378.912 503.88 388.879V410.979H496.773V366.779H502.927L503.88 372.759C506.48 369.379 510.987 366.259 518.44 366.259ZM542.667 396.419H549.947C550.207 401.619 554.801 405.432 562.167 405.432C568.407 405.432 572.827 402.745 572.827 398.672C572.827 393.125 567.974 392.692 561.387 391.912C551.507 390.699 543.621 388.705 543.621 379.519C543.621 371.459 550.987 366.172 560.954 366.259C571.007 366.345 578.287 371.025 578.981 380.212H571.701C571.181 375.705 567.021 372.325 560.954 372.325C554.801 372.325 550.641 374.925 550.641 378.999C550.641 383.852 555.321 384.459 561.734 385.239C571.787 386.452 579.847 388.359 579.847 398.152C579.847 406.385 571.961 411.499 562.167 411.499C550.727 411.499 542.841 406.125 542.667 396.419ZM630.265 370.332C642.138 370.332 650.372 378.652 650.372 390.699C650.372 404.132 640.492 411.412 629.138 411.412C615.618 411.412 607.818 402.659 607.212 392.085H614.405C615.098 399.105 620.385 404.912 629.138 404.912C636.245 404.912 642.918 400.145 642.918 390.785C642.918 382.552 637.632 376.745 629.225 376.745C625.498 376.745 618.045 377.785 615.445 384.979L608.425 384.805L610.418 350.312H646.732V356.985H617.092L615.705 376.139C619.432 371.719 624.632 370.332 630.265 370.332ZM660.716 401.445C657.683 396.159 655.949 388.879 655.949 380.905C655.949 361.839 664.529 349.792 679.003 349.792C690.009 349.792 697.549 356.379 699.023 366.519H691.743C690.356 360.365 686.023 356.205 678.656 356.205C668.083 356.205 662.276 365.825 662.276 379.519C662.276 380.385 662.276 380.992 662.363 382.465C662.449 382.119 662.536 381.599 662.883 380.819C665.569 374.839 671.636 370.852 679.783 370.852C691.743 370.852 700.149 378.739 700.149 391.132C700.149 402.832 691.569 411.499 679.089 411.499C670.683 411.499 664.529 407.685 660.716 401.445ZM692.869 391.132C692.869 383.072 687.669 377.265 679.263 377.265C670.856 377.265 665.136 382.985 665.136 391.305C665.136 399.452 670.683 405.085 679.003 405.085C687.409 405.085 692.869 399.279 692.869 391.132ZM705.678 396.419H712.958C713.218 401.619 717.812 405.432 725.178 405.432C731.418 405.432 735.838 402.745 735.838 398.672C735.838 393.125 730.985 392.692 724.398 391.912C714.518 390.699 706.632 388.705 706.632 379.519C706.632 371.459 713.998 366.172 723.965 366.259C734.018 366.345 741.298 371.025 741.992 380.212H734.712C734.192 375.705 730.032 372.325 723.965 372.325C717.812 372.325 713.652 374.925 713.652 378.999C713.652 383.852 718.332 384.459 724.745 385.239C734.798 386.452 742.858 388.359 742.858 398.152C742.858 406.385 734.972 411.499 725.178 411.499C713.738 411.499 705.852 406.125 705.678 396.419ZM770.247 411.499C756.987 411.499 748.321 402.399 748.321 388.879C748.321 375.445 756.814 366.259 769.294 366.259C781.774 366.259 789.921 374.145 790.267 387.232C790.267 388.185 790.181 389.225 790.094 390.265H755.774V390.872C756.034 399.279 761.321 405.172 769.727 405.172C775.967 405.172 780.821 401.879 782.294 396.159H789.487C787.754 404.999 780.474 411.499 770.247 411.499ZM756.207 384.372H782.641C781.947 376.745 776.747 372.499 769.381 372.499C762.881 372.499 756.901 377.179 756.207 384.372ZM817.357 411.499C804.443 411.499 795.95 402.745 795.95 388.965C795.95 375.445 804.703 366.259 817.53 366.259C828.363 366.259 835.21 372.325 837.03 382.032H829.577C828.277 376.139 823.943 372.585 817.443 372.585C808.95 372.585 803.23 379.345 803.23 388.965C803.23 398.585 808.95 405.172 817.443 405.172C823.77 405.172 828.103 401.532 829.49 395.899H837.03C835.297 405.432 828.103 411.499 817.357 411.499ZM864.321 411.499C851.408 411.499 842.395 402.312 842.395 388.879C842.395 375.445 851.408 366.259 864.321 366.259C877.235 366.259 886.248 375.445 886.248 388.879C886.248 402.312 877.235 411.499 864.321 411.499ZM864.321 405.172C873.075 405.172 878.968 398.325 878.968 388.879C878.968 379.432 873.075 372.585 864.321 372.585C855.568 372.585 849.675 379.432 849.675 388.879C849.675 398.325 855.568 405.172 864.321 405.172ZM915.197 366.259C925.164 366.259 933.05 371.719 933.05 386.365V410.979H925.944V386.799C925.944 377.612 921.697 372.759 913.984 372.759C905.664 372.759 900.637 378.912 900.637 388.879V410.979H893.53V366.779H899.684L900.637 372.759C903.237 369.379 907.744 366.259 915.197 366.259ZM939.425 396.419H946.705C946.965 401.619 951.558 405.432 958.925 405.432C965.165 405.432 969.585 402.745 969.585 398.672C969.585 393.125 964.731 392.692 958.145 391.912C948.265 390.699 940.378 388.705 940.378 379.519C940.378 371.459 947.745 366.172 957.711 366.259C967.765 366.345 975.045 371.025 975.738 380.212H968.458C967.938 375.705 963.778 372.325 957.711 372.325C951.558 372.325 947.398 374.925 947.398 378.999C947.398 383.852 952.078 384.459 958.491 385.239C968.545 386.452 976.605 388.359 976.605 398.152C976.605 406.385 968.718 411.499 958.925 411.499C947.485 411.499 939.598 406.125 939.425 396.419Z" fill="white"/>
<rect x="502.084" y="484.335" width="275.944" height="76.2862" rx="38.1431" fill="white"/>
<rect x="502.084" y="484.335" width="275.944" height="76.2862" rx="38.1431" stroke="#CFCFCF" stroke-width="0.713815"/>
<path d="M524.922 527.599H526.714C526.938 530.927 529.498 533.103 533.274 533.103C536.89 533.103 539.322 531.375 539.322 528.495C539.322 525.231 536.186 524.527 532.666 523.919C529.082 523.311 525.434 522.351 525.434 518.095C525.434 514.287 528.41 511.887 532.954 511.887C537.53 511.887 540.442 514.415 540.762 518.255H539.002C538.618 515.343 536.314 513.455 532.954 513.455C529.434 513.455 527.162 515.087 527.162 517.999C527.162 521.199 530.138 521.775 533.562 522.351C537.274 522.991 541.05 524.079 541.05 528.335C541.05 532.111 537.946 534.671 533.242 534.671C528.218 534.671 525.146 531.823 524.922 527.599ZM551.632 518.063C555.312 518.063 558.032 520.271 558.032 525.391V534.479H556.4V525.455C556.4 521.615 554.48 519.567 551.376 519.567C547.92 519.567 545.776 522.255 545.776 526.479V534.479H544.144V512.079H545.776V522.095C546.704 519.759 548.592 518.063 551.632 518.063ZM568.273 534.671C563.697 534.671 560.497 531.279 560.497 526.351C560.497 521.455 563.697 518.063 568.273 518.063C572.849 518.063 576.081 521.455 576.081 526.351C576.081 531.279 572.849 534.671 568.273 534.671ZM568.273 533.199C571.889 533.199 574.385 530.383 574.385 526.351C574.385 522.351 571.889 519.503 568.273 519.503C564.657 519.503 562.161 522.351 562.161 526.351C562.161 530.383 564.657 533.199 568.273 533.199ZM586.844 518.063C591.292 518.063 594.492 521.263 594.492 526.351C594.492 531.279 591.292 534.671 586.844 534.671C583.772 534.671 581.564 533.103 580.636 530.735V540.879H579.004V518.255H580.412L580.668 521.967C581.692 519.695 583.804 518.063 586.844 518.063ZM586.716 533.199C590.332 533.199 592.828 530.383 592.828 526.351C592.828 522.351 590.332 519.503 586.716 519.503C583.1 519.503 580.604 522.351 580.604 526.319C580.604 530.383 583.1 533.199 586.716 533.199ZM606.923 530.703V519.759H603.851V518.255H606.923V513.711H608.555V518.255H612.939V519.759H608.555V530.671C608.555 532.335 609.163 532.975 610.859 532.975H613.099V534.479H610.731C607.979 534.479 606.923 533.295 606.923 530.703ZM622.75 518.063C626.43 518.063 629.15 520.271 629.15 525.391V534.479H627.518V525.455C627.518 521.615 625.598 519.567 622.494 519.567C619.038 519.567 616.894 522.255 616.894 526.479V534.479H615.262V512.079H616.894V522.095C617.822 519.759 619.71 518.063 622.75 518.063ZM639.392 534.671C634.784 534.671 631.616 531.343 631.616 526.255C631.616 521.455 634.656 518.063 639.104 518.063C643.456 518.063 646.432 520.879 646.592 525.711C646.592 525.903 646.56 526.159 646.56 526.383H633.312V526.671C633.376 530.447 635.648 533.199 639.264 533.199C641.92 533.199 644.064 531.631 644.704 529.103H646.368C645.664 532.367 642.944 534.671 639.392 534.671ZM633.44 525.007H644.832C644.576 521.455 642.304 519.503 639.136 519.503C636.16 519.503 633.696 521.711 633.44 525.007ZM657.354 527.599H659.146C659.37 530.927 661.93 533.103 665.706 533.103C669.322 533.103 671.754 531.375 671.754 528.495C671.754 525.231 668.618 524.527 665.098 523.919C661.514 523.311 657.866 522.351 657.866 518.095C657.866 514.287 660.842 511.887 665.386 511.887C669.962 511.887 672.874 514.415 673.194 518.255H671.434C671.05 515.343 668.746 513.455 665.386 513.455C661.866 513.455 659.594 515.087 659.594 517.999C659.594 521.199 662.57 521.775 665.994 522.351C669.706 522.991 673.482 524.079 673.482 528.335C673.482 532.111 670.378 534.671 665.674 534.671C660.65 534.671 657.578 531.823 657.354 527.599ZM690.848 532.975H691.456V534.479H690.496C688.576 534.479 687.776 533.647 687.84 531.727V531.151C686.848 533.167 684.896 534.671 681.6 534.671C678.144 534.671 675.872 532.911 675.872 530.031C675.872 526.991 678.112 525.199 682.272 525.199H687.776V523.791C687.776 521.103 686.048 519.503 683.008 519.503C680.256 519.503 678.528 520.815 678.112 522.799H676.48C676.896 519.855 679.36 518.063 683.072 518.063C687.136 518.063 689.408 520.143 689.408 523.855V531.407C689.408 532.655 689.888 532.975 690.848 532.975ZM687.776 527.919V526.607H682.144C679.136 526.607 677.536 527.791 677.536 529.935C677.536 531.951 679.136 533.263 681.728 533.263C685.568 533.263 687.776 531.023 687.776 527.919ZM693.319 534.479V512.079H694.951V534.479H693.319ZM705.635 534.671C701.027 534.671 697.859 531.343 697.859 526.255C697.859 521.455 700.899 518.063 705.347 518.063C709.699 518.063 712.675 520.879 712.835 525.711C712.835 525.903 712.803 526.159 712.803 526.383H699.555V526.671C699.619 530.447 701.891 533.199 705.507 533.199C708.163 533.199 710.307 531.631 710.947 529.103H712.611C711.907 532.367 709.187 534.671 705.635 534.671ZM699.683 525.007H711.075C710.819 521.455 708.547 519.503 705.379 519.503C702.403 519.503 699.939 521.711 699.683 525.007Z" fill="black"/>
<path d="M739.408 538.862C748.506 538.862 755.882 531.486 755.882 522.387C755.882 513.289 748.506 505.913 739.408 505.913C730.309 505.913 722.933 513.289 722.933 522.387C722.933 531.486 730.309 538.862 739.408 538.862Z" stroke="#121212" stroke-width="1.08406" stroke-linecap="round" stroke-linejoin="round"/>
<path d="M733.641 522.388H743.526" stroke="#121212" stroke-width="1.08406" stroke-linecap="round" stroke-linejoin="round"/>
<path d="M740.231 527.33L745.174 522.387L740.231 517.445" stroke="#292D32" stroke-width="1.45187" stroke-linecap="round" stroke-linejoin="round"/>
<defs>
<linearGradient id="paint0_linear_1_283" x1="1567" y1="34" x2="-61.9471" y2="515.167" gradientUnits="userSpaceOnUse">
<stop stop-color="#D1068C"/>
<stop offset="0.515" stop-color="#1310A6"/>
<stop offset="1" stop-color="#7E1B5C"/>
</linearGradient>
</defs>
</svg>
